<svg width="14.000000" height="14.000000" viewBox="0 0 14 14" fill="none" xmlns="http://www.w3.org/2000/svg" xmlns:xlink="http://www.w3.org/1999/xlink">
	<desc>
			Created with Pixso.
	</desc>
	<defs>
		<clipPath id="clip6_519">
			<rect id="feather-facebook" width="14.000000" height="14.000000" fill="white" fill-opacity="0"/>
		</clipPath>
	</defs>
	<rect id="feather-facebook" width="14.000000" height="14.000000" fill="#FFFFFF" fill-opacity="0"/>
	<g clip-path="url(#clip6_519)">
		<path id="Vector" d="M10.5 1.16L8.74 1.16C7.97 1.16 7.23 1.47 6.68 2.02C6.14 2.56 5.83 3.3 5.83 4.08L5.83 5.83L4.08 5.83L4.08 8.16L5.83 8.16L5.83 12.83L8.16 12.83L8.16 8.16L9.91 8.16L10.5 5.83L8.16 5.83L8.16 4.08C8.16 3.92 8.22 3.78 8.33 3.67C8.44 3.56 8.59 3.5 8.74 3.5L10.5 3.5L10.5 1.16Z" fill="#101010" fill-opacity="1.000000" fill-rule="nonzero"/>
	</g>
</svg>
