<svg width="11.000000" height="11.000000" viewBox="0 0 11 11" fill="none" xmlns="http://www.w3.org/2000/svg" xmlns:xlink="http://www.w3.org/1999/xlink">
	<desc>
			Created with Pixso.
	</desc>
	<defs/>
	<path id="Vector" d="M7.33 2.66C8.26 2.66 9.15 3.03 9.8 3.69C10.46 4.34 10.83 5.23 10.83 6.16L10.83 10.25L8.49 10.25L8.49 6.16C8.49 5.85 8.37 5.56 8.15 5.34C7.93 5.12 7.64 5 7.33 5C7.02 5 6.72 5.12 6.5 5.34C6.28 5.56 6.16 5.85 6.16 6.16L6.16 10.25L3.83 10.25L3.83 6.16C3.83 5.23 4.2 4.34 4.85 3.69C5.51 3.03 6.4 2.66 7.33 2.66Z" fill="#101010" fill-opacity="1.000000" fill-rule="nonzero"/>
	<path id="Vector" d="M-0.84 3.25L1.5 3.25L1.5 10.25L-0.84 10.25L-0.84 3.25Z" fill="#101010" fill-opacity="1.000000" fill-rule="nonzero"/>
	<path id="Vector" d="M1.5 0.33C1.5 0.97 0.97 1.5 0.33 1.5C-0.32 1.5 -0.84 0.97 -0.84 0.33C-0.84 -0.32 -0.32 -0.84 0.33 -0.84C0.97 -0.84 1.5 -0.32 1.5 0.33Z" fill="#101010" fill-opacity="1.000000" fill-rule="evenodd"/>
</svg>
