<svg width="13.000000" height="11.000000" viewBox="0 0 13 11" fill="none" xmlns="http://www.w3.org/2000/svg" xmlns:xlink="http://www.w3.org/1999/xlink">
	<desc>
			Created with Pixso.
	</desc>
	<defs/>
	<path id="Vector" d="M12.41 -0.25C11.85 0.14 11.23 0.44 10.58 0.64C10.23 0.23 9.76 -0.05 9.24 -0.18C8.72 -0.31 8.18 -0.28 7.68 -0.09C7.18 0.1 6.75 0.44 6.45 0.88C6.15 1.33 5.99 1.85 5.99 2.39L5.99 2.97C4.97 3 3.95 2.77 3.04 2.31C2.12 1.85 1.33 1.17 0.74 0.33C0.74 0.33 -1.59 5.58 3.66 7.91C2.46 8.73 1.03 9.14 -0.42 9.08C4.83 12 11.25 9.08 11.25 2.37C11.24 2.21 11.23 2.05 11.2 1.89C11.79 1.3 12.21 0.56 12.41 -0.25Z" fill="#101010" fill-opacity="1.000000" fill-rule="nonzero"/>
</svg>
